<svg width="256" height="43" viewBox="0 0 256 43" fill="none" xmlns="http://www.w3.org/2000/svg">
<path fill-rule="evenodd" clip-rule="evenodd" d="M19.4626 31.263C19.2071 31.0038 18.7929 31.0038 18.5374 31.263C16.9462 32.8774 11.708 38.1914 10.1166 39.8056C9.8611 40.0648 9.44685 40.0648 9.19136 39.8056C7.58661 38.1774 2.26205 32.7761 0.541336 31.0305C0.194793 30.6787 0 30.2017 0 29.7045C0 26.6344 0 15.3658 0 12.2958C0 11.7983 0.194793 11.3213 0.541336 10.9695C2.26205 9.2239 7.58661 3.82258 9.19136 2.19439C9.44685 1.9352 9.8611 1.9352 10.1166 2.19439C11.708 3.80879 16.9462 9.1228 18.5374 10.737C18.7929 10.9962 19.2071 10.9962 19.4626 10.737C21.0538 9.1228 26.292 3.80879 27.8834 2.19439C28.1389 1.9352 28.553 1.9352 28.8085 2.19439C30.4134 3.82258 35.7377 9.2239 37.4587 10.9695C37.8052 11.3213 38 11.7983 38 12.2958C38 15.3658 38 26.6344 38 29.7045C38 30.2017 37.8052 30.6787 37.4587 31.0305C35.7377 32.7761 30.4134 38.1774 28.8085 39.8056C28.553 40.0648 28.1389 40.0648 27.8834 39.8056C26.292 38.1914 21.0538 32.8774 19.4626 31.263ZM19.4626 30.3244C19.3399 30.4489 19.1734 30.5188 18.9999 30.5188C18.8264 30.5188 18.6601 30.4489 18.5374 30.3244C16.907 28.6707 11.4387 23.1232 9.80856 21.4693C9.6858 21.3448 9.61693 21.1761 9.61693 21.0001C9.61693 20.8241 9.6858 20.6552 9.80856 20.5307C11.4387 18.877 16.907 13.3295 18.5374 11.6756C18.6601 11.5511 18.8264 11.4812 18.9999 11.4812C19.1734 11.4812 19.3399 11.5511 19.4626 11.6756C21.093 13.3295 26.5611 18.877 28.1915 20.5307C28.3142 20.6552 28.3831 20.8241 28.3831 21.0001C28.3831 21.1761 28.3142 21.3448 28.1915 21.4693C26.5611 23.1232 21.093 28.6707 19.4626 30.3244Z" fill="white"/>
<path d="M51.0544 12.548V7.3H76.3104V12.548H66.6754V36H60.7304V12.548H51.0544ZM80.4245 36V7.3L86.0415 6.07V16.32C86.8615 15.6367 87.7635 15.1173 88.7475 14.762C89.7589 14.4067 90.8522 14.229 92.0275 14.229C94.4875 14.229 96.5102 15.0217 98.0955 16.607C99.6809 18.1923 100.474 20.2287 100.474 22.716V36H94.8565V23.536C94.8565 22.1967 94.4465 21.117 93.6265 20.297C92.8339 19.477 91.7679 19.067 90.4285 19.067C89.4992 19.067 88.6519 19.2583 87.8865 19.641C87.1485 19.9963 86.5335 20.5157 86.0415 21.199V36H80.4245ZM108.664 12.097C107.79 12.097 107.038 11.7827 106.409 11.154C105.781 10.5253 105.466 9.77367 105.466 8.899C105.466 8.02433 105.781 7.27267 106.409 6.644C107.038 6.01533 107.79 5.701 108.664 5.701C109.539 5.701 110.291 6.01533 110.919 6.644C111.548 7.27267 111.862 8.02433 111.862 8.899C111.862 9.77367 111.548 10.5253 110.919 11.154C110.291 11.7827 109.539 12.097 108.664 12.097ZM111.493 14.639V36H105.876V14.639H111.493ZM117.034 36V14.639H122.651V16.32C123.471 15.6367 124.373 15.1173 125.357 14.762C126.368 14.4067 127.462 14.229 128.637 14.229C131.097 14.229 133.12 15.0217 134.705 16.607C136.29 18.1923 137.083 20.2287 137.083 22.716V36H131.466V23.536C131.466 22.1967 131.056 21.117 130.236 20.297C129.443 19.477 128.377 19.067 127.038 19.067C126.109 19.067 125.261 19.2583 124.496 19.641C123.758 19.9963 123.143 20.5157 122.651 21.199V36H117.034ZM142.486 36V7.3L148.103 6.07V23.659L157.328 14.639H163.683L153.679 24.438L164.298 36H157.123L148.103 26.242V36H142.486ZM172.901 36.369C170.605 36.369 168.732 35.7677 167.284 34.565C165.835 33.335 165.111 31.7497 165.111 29.809C165.111 27.7863 165.89 26.201 167.448 25.053C169.006 23.905 171.151 23.331 173.885 23.331C174.759 23.331 175.634 23.3993 176.509 23.536C177.383 23.6727 178.244 23.8777 179.092 24.151V22.634C179.092 21.404 178.709 20.4747 177.944 19.846C177.178 19.2173 176.058 18.903 174.582 18.903C173.68 18.903 172.696 19.0533 171.63 19.354C170.591 19.6273 169.402 20.0647 168.063 20.666L166.013 16.525C167.68 15.7597 169.293 15.1857 170.851 14.803C172.436 14.4203 173.994 14.229 175.525 14.229C178.395 14.229 180.622 14.926 182.208 16.32C183.82 17.6867 184.627 19.6273 184.627 22.142V36H179.092V34.524C178.19 35.1527 177.233 35.6173 176.222 35.918C175.238 36.2187 174.131 36.369 172.901 36.369ZM170.482 29.686C170.482 30.506 170.837 31.162 171.548 31.654C172.258 32.1187 173.201 32.351 174.377 32.351C175.306 32.351 176.153 32.2417 176.919 32.023C177.711 31.777 178.436 31.4353 179.092 30.998V27.8C178.408 27.5267 177.684 27.3353 176.919 27.226C176.181 27.0893 175.402 27.021 174.582 27.021C173.297 27.021 172.286 27.267 171.548 27.759C170.837 28.2237 170.482 28.866 170.482 29.686ZM195.643 6.07V36H190.026V7.3L195.643 6.07ZM203.972 12.097C203.097 12.097 202.345 11.7827 201.717 11.154C201.088 10.5253 200.774 9.77367 200.774 8.899C200.774 8.02433 201.088 7.27267 201.717 6.644C202.345 6.01533 203.097 5.701 203.972 5.701C204.846 5.701 205.598 6.01533 206.227 6.644C206.855 7.27267 207.17 8.02433 207.17 8.899C207.17 9.77367 206.855 10.5253 206.227 11.154C205.598 11.7827 204.846 12.097 203.972 12.097ZM206.801 14.639V36H201.184V14.639H206.801ZM212.341 36V7.3L217.958 6.07V23.659L227.183 14.639H233.538L223.534 24.438L234.153 36H226.978L217.958 26.242V36H212.341ZM254.338 33.335C253.026 34.401 251.673 35.18 250.279 35.672C248.912 36.164 247.381 36.41 245.687 36.41C244.074 36.41 242.557 36.123 241.136 35.549C239.742 34.975 238.525 34.196 237.487 33.212C236.475 32.228 235.669 31.0663 235.068 29.727C234.494 28.3603 234.207 26.898 234.207 25.34C234.207 23.8093 234.48 22.3743 235.027 21.035C235.601 19.6683 236.38 18.493 237.364 17.509C238.348 16.4977 239.509 15.705 240.849 15.131C242.215 14.557 243.664 14.27 245.195 14.27C246.698 14.27 248.092 14.5707 249.377 15.172C250.689 15.746 251.809 16.5387 252.739 17.55C253.695 18.5613 254.433 19.7777 254.953 21.199C255.499 22.593 255.773 24.11 255.773 25.75V27.226H239.865C240.247 28.5653 240.985 29.645 242.079 30.465C243.172 31.285 244.457 31.695 245.933 31.695C246.862 31.695 247.737 31.5447 248.557 31.244C249.377 30.9433 250.074 30.5197 250.648 29.973L254.338 33.335ZM245.072 18.903C243.787 18.903 242.68 19.2993 241.751 20.092C240.821 20.8573 240.179 21.896 239.824 23.208H250.279C249.923 21.9507 249.267 20.9257 248.311 20.133C247.381 19.313 246.302 18.903 245.072 18.903Z" fill="white"/>
</svg>
